<svg xmlns="http://www.w3.org/2000/svg" viewBox="0 0 128 128"><path d="m2.9 128c20-20 40.9-40.7 61-60.8 20.3 20 40.6 40.5 60.9 60.8-.2 0-14.4 0-17.8 0-13.6-13.5-42-42-42.9-43-3.3 3.4-32 32-43 43-.3 0-18 0-18.3 0"/><path d="m98 32.5c3-3 6-6 8.9-8.9 20.7 20.7 22.9 57 .1 82-2.9-3-5.8-6-8.8-9.1 8.1-9.2 12.4-19.7 12.3-31.9 0-12.3-4.3-22.8-12.5-31.7"/><path d="m20.8 23.6c2.9 2.9 5.9 5.9 8.9 8.9-8.1 8.9-12.4 19.5-12.5 31.6-.1 12.2 4.2 22.8 12.2 31.8-3 3-6 5.9-8.9 8.9-21-21.4-21.8-58.7.3-81"/><path d="m91 118c-18 8.5-35.9 8.5-53.9 0 .4-.5.7-.8 1.1-1.1 2.6-2.6 5.3-5.2 7.9-7.9.5-.5 1-.6 1.7-.4 10.9 4 21.7 4 32.6 0 .6-.2 1-.4 1.6.2 2.9 3.1 5.8 6 9 9.2"/><path d="m91 11c-3.3 3.2-6.3 6.3-9.4 9.3-10.6-3.2-23-3.2-34 0-2-2.2-6.2-5.7-9.1-9.4 17.5-8.1 35-8.1 52.8.1"/><path d="m125-.3c-20.3 20-40.9 40.7-61 60.8-20.3-20.3-40.6-40.6-60.9-60.8.2 0 14.4 0 17.8 0 13.6 13.5 42 42 42.9 43 3.3-3.4 32-32 43-43 .3 0 18 0 18.3 0"/></svg>
